<?xml version="1.0" standalone="no"?>
<!DOCTYPE svg PUBLIC "-//W3C//DTD SVG 20010904//EN"
 "http://www.w3.org/TR/2001/REC-SVG-20010904/DTD/svg10.dtd">
<svg version="1.0" xmlns="http://www.w3.org/2000/svg"
 width="512.000000pt" height="512.000000pt" viewBox="0 0 512.000000 512.000000"
 preserveAspectRatio="xMidYMid meet">

<g transform="translate(0.000000,512.000000) scale(0.100000,-0.100000)"
fill="#4d3a8c" stroke="none">
<path d="M190 4345 c-60 -19 -125 -75 -157 -139 -36 -69 -38 -180 -5 -243 36
-68 2317 -3108 2358 -3142 54 -44 123 -65 198 -59 67 6 105 22 156 65 38 31
2319 3074 2352 3136 18 33 23 59 23 117 -1 90 -30 157 -96 213 -84 73 123 67
-2458 66 -1961 0 -2333 -3 -2371 -14z" fill="#fff"/>
</g>
</svg>
