<svg width="153" height="131" viewBox="0 0 153 131" fill="none" xmlns="http://www.w3.org/2000/svg">
<g id="logo_VS-removebg-preview 1">
<g id="Group">
<path id="Vector" d="M86.1696 44.8806C84.3336 49.518 81.4266 56.9588 79.6518 61.4128C76.5612 69.2728 76.4694 69.5086 77.0202 70.0326C77.9688 70.9234 81.7938 72.2858 86.6286 73.3862C89.1684 73.9888 91.7082 74.6176 92.2284 74.801C93.5136 75.2726 94.554 76.1634 94.554 76.7922C94.554 78.3118 92.9016 79.124 89.9028 79.124C87.3936 79.124 86.0472 78.5214 85.221 77.0804L84.609 76.0062L78.8868 75.98C72.3078 75.98 72.7668 75.7442 73.746 78.6262C74.7252 81.4034 76.7142 83.4208 79.866 84.8618C82.7424 86.1718 85.0068 86.5648 89.811 86.5648C94.9518 86.5648 98.1036 85.936 100.919 84.364C104.468 82.4252 105.998 79.91 105.998 75.98C106.029 73.1766 105.509 71.8404 103.734 70.1374C101.867 68.3034 99.3888 67.334 92.871 65.893C86.5062 64.4782 85.374 63.9804 85.374 62.4608C85.374 61.1246 86.5062 60.522 89.046 60.522C91.3716 60.522 92.871 61.1508 93.5748 62.4346L93.9726 63.142H99.4806C105.815 63.142 105.509 63.3254 104.285 60.26C103.765 58.9762 103.153 58.2164 101.898 57.0898C98.8686 54.4436 95.4414 53.448 89.3214 53.448H85.4352L85.8636 51.7974C86.0778 50.9066 86.6898 48.5224 87.1794 46.505C87.669 44.4876 88.434 41.4222 88.8624 39.7192C89.2908 37.99 89.6274 36.549 89.5662 36.5228C89.505 36.4704 87.975 40.2432 86.1696 44.8806Z" fill="white"/>
<path id="Vector_2" d="M53.091 60.0504L59.3028 75.849L63.8622 75.9276L68.4216 76.0062L67.7484 78.6786C67.0752 81.351 65.4228 87.6914 64.26 92.0668C63.9234 93.3506 63.6786 94.4248 63.7092 94.4772C63.7704 94.5034 66.3102 88.163 69.3702 80.3554C72.4302 72.5478 76.7448 61.5438 78.9786 55.937C81.1818 50.304 83.1096 45.4046 83.232 44.9854L83.5074 44.278H77.7546H72.0018L71.0838 46.9504C70.5636 48.4438 69.0948 52.9764 67.779 57.0636C66.4326 61.1246 65.2698 64.3734 65.178 64.2686C65.0556 64.1376 63.8928 60.522 62.577 56.199C61.2918 51.876 59.9148 47.422 59.5782 46.2954L58.9662 44.278H52.938H46.8792L53.091 60.0504Z" fill="white"/>
</g>
</g>
</svg>
