<?xml version="1.0" encoding="utf-8"?>
<!-- Generator: Adobe Illustrator 28.3.0, SVG Export Plug-In . SVG Version: 6.00 Build 0)  -->
<svg version="1.1" id="Calque_1" xmlns="http://www.w3.org/2000/svg" xmlns:xlink="http://www.w3.org/1999/xlink" x="0px" y="0px"
	 viewBox="0 0 100 100" style="enable-background:new 0 0 100 100;" xml:space="preserve">
<style type="text/css">
	.st0{fill:#FFFFFF;}
	.st1{fill:#4D3A8C;}
</style>
<g>
	<circle class="st0" cx="49.5" cy="49.5" r="47.5"/>
	<g>
		<g>
			<path class="st1" d="M48.6,15.9l0.5,1c1.2,2.5,3.3,4.6,5.8,5.8l1,0.5c0.4,0.2,0.4,0.8,0,1l-1,0.5c-2.5,1.2-4.6,3.3-5.8,5.8
				l-0.5,1c-0.2,0.4-0.8,0.4-1,0l-0.5-1c-1.2-2.5-3.3-4.6-5.8-5.8l-1-0.5c-0.4-0.2-0.4-0.8,0-1l1-0.5c2.5-1.2,4.6-3.3,5.8-5.8l0.5-1
				C47.8,15.5,48.4,15.5,48.6,15.9z"/>
			<path class="st1" d="M31,26.2l0.4,0.8c1,2.1,2.7,3.8,4.7,4.7l0.8,0.4c0.3,0.2,0.3,0.7,0,0.8l-0.8,0.4c-2.1,1-3.8,2.7-4.7,4.7
				L31,38.9c-0.2,0.3-0.7,0.3-0.8,0l-0.4-0.8c-1-2.1-2.7-3.8-4.7-4.7L24.2,33c-0.3-0.2-0.3-0.7,0-0.8l0.8-0.4c2.1-1,3.8-2.7,4.7-4.7
				l0.4-0.8C30.3,25.9,30.8,25.9,31,26.2z"/>
			<path class="st1" d="M22.7,40.2l0.3,0.6c0.8,1.6,2.1,2.9,3.7,3.7l0.6,0.3c0.3,0.1,0.3,0.5,0,0.6l-0.6,0.3
				c-1.6,0.8-2.9,2.1-3.7,3.7l-0.3,0.6c-0.1,0.3-0.5,0.3-0.6,0l-0.3-0.6c-0.8-1.6-2.1-2.9-3.7-3.7l-0.6-0.3c-0.3-0.1-0.3-0.5,0-0.6
				l0.6-0.3c1.6-0.8,2.9-2.1,3.7-3.7l0.3-0.6C22.2,39.9,22.6,39.9,22.7,40.2z"/>
			<path class="st1" d="M21.9,53.1l0.3,0.6c0.7,1.4,1.8,2.6,3.2,3.2l0.6,0.3c0.2,0.1,0.2,0.4,0,0.6L25.4,58
				c-1.4,0.7-2.6,1.8-3.2,3.2l-0.3,0.6c-0.1,0.2-0.4,0.2-0.6,0l-0.3-0.6c-0.7-1.4-1.8-2.6-3.2-3.2l-0.6-0.3c-0.2-0.1-0.2-0.4,0-0.6
				l0.6-0.3c1.4-0.7,2.6-1.8,3.2-3.2l0.3-0.6C21.5,52.9,21.8,52.9,21.9,53.1z"/>
			<path class="st1" d="M26.3,64.2l0.2,0.5c0.5,1.1,1.5,2.1,2.6,2.6l0.5,0.2c0.2,0.1,0.2,0.4,0,0.5l-0.5,0.2
				c-1.1,0.5-2.1,1.5-2.6,2.6l-0.2,0.5c-0.1,0.2-0.4,0.2-0.5,0l-0.2-0.5c-0.5-1.1-1.5-2.1-2.6-2.6l-0.5-0.2c-0.2-0.1-0.2-0.4,0-0.5
				l0.5-0.2c1.1-0.5,2.1-1.5,2.6-2.6l0.2-0.5C26,64,26.2,64,26.3,64.2z"/>
			<path class="st1" d="M33.4,71.5l0.2,0.3c0.4,0.9,1.1,1.6,2,2l0.3,0.2c0.1,0.1,0.1,0.3,0,0.3l-0.3,0.2c-0.9,0.4-1.6,1.1-2,2
				l-0.2,0.3c-0.1,0.1-0.3,0.1-0.3,0l-0.2-0.3c-0.4-0.9-1.1-1.6-2-2l-0.3-0.2c-0.1-0.1-0.1-0.3,0-0.3l0.3-0.2c0.9-0.4,1.6-1.1,2-2
				l0.2-0.3C33.1,71.4,33.3,71.4,33.4,71.5z"/>
		</g>
		<path class="st1" d="M65.9,42.8l-4.7,13.8h11.4C72.2,51.1,69.7,46.2,65.9,42.8z M52.3,37.6c-10.8,0-19.6,8.4-20.3,19h11.6
			c0.6-4.2,4.3-7.4,8.7-7.4c2.5,0,4.8,1.1,6.4,2.8l3.9-11.6C59.5,38.6,56,37.6,52.3,37.6z M61,59c-0.5,4.3-4.2,7.6-8.7,7.6
			s-8.1-3.3-8.7-7.6H32c0.6,10.7,9.4,19.2,20.3,19.2S72,69.7,72.6,59H61z"/>
		<path class="st1" d="M57.2,57.9c0,0.4,0,0.8-0.1,1.1c-0.5,2.2-2.5,3.8-4.8,3.8c-2.3,0-4.3-1.6-4.8-3.8c-0.1-0.4-0.1-0.7-0.1-1.1
			c0-0.5,0.1-0.9,0.2-1.3c0.6-2.1,2.5-3.6,4.8-3.6s4.2,1.5,4.8,3.6C57.2,57,57.2,57.5,57.2,57.9z"/>
		<path class="st1" d="M84.7,47.6c-0.7,3.7-3.9,8.7-8.6,9.4c-0.6,0.1-1.5-0.4-1.7-1c-0.1-0.4-0.1-0.9,0.5-1.3
			c1.4-0.9,8.9-6.3,0.4-12.4c-4.1-3-7.7-4.8-7.7-4.8l-1.8,5.3c-1-0.9-2.1-1.7-3.3-2.4l5-15.1c0.3-1,1.4-1.5,2.4-1.2
			c0.8,0.3,1.1,0.8,1.3,1.5c0.1,0.5,0.3,1.2,0.4,1.7c0.6,2,2.2,5.4,6.7,8.4C85,40.1,85.4,43.7,84.7,47.6z"/>
	</g>
</g>
</svg>
