<?xml version="1.0" encoding="utf-8"?>
<!-- Generator: Adobe Illustrator 28.3.0, SVG Export Plug-In . SVG Version: 6.00 Build 0)  -->
<svg version="1.1" id="Calque_1" xmlns="http://www.w3.org/2000/svg" xmlns:xlink="http://www.w3.org/1999/xlink" x="0px" y="0px"
	 viewBox="0 0 100 100" style="enable-background:new 0 0 100 100;" xml:space="preserve">
<style type="text/css">
	.st0{fill:#FFFFFF;}
</style>
<g>
	<g>
		<path class="st0" d="M46.9,4.4l0.7,1.4c1.7,3.5,4.5,6.4,8,8l1.4,0.7c0.6,0.3,0.6,1.1,0,1.4l-1.4,0.7c-3.5,1.7-6.4,4.5-8,8L46.9,26
			c-0.3,0.6-1.1,0.6-1.4,0l-0.7-1.4c-1.7-3.5-4.5-6.4-8-8l-1.4-0.7c-0.6-0.3-0.6-1.1,0-1.4l1.4-0.7c3.5-1.7,6.4-4.5,8-8l0.7-1.4
			C45.7,3.9,46.6,3.9,46.9,4.4z"/>
		<path class="st0" d="M22.5,18.7l0.5,1.1c1.4,2.9,3.7,5.2,6.6,6.6l1.1,0.5c0.5,0.2,0.5,0.9,0,1.1l-1.1,0.5
			c-2.9,1.4-5.2,3.7-6.6,6.6l-0.5,1.1c-0.2,0.5-0.9,0.5-1.1,0l-0.5-1.1c-1.4-2.9-3.7-5.2-6.6-6.6l-1.1-0.5c-0.5-0.2-0.5-0.9,0-1.1
			l1.1-0.5c2.9-1.4,5.2-3.7,6.6-6.6l0.5-1.1C21.6,18.2,22.3,18.2,22.5,18.7z"/>
		<path class="st0" d="M11.1,38l0.4,0.9c1.1,2.2,2.9,4,5.1,5.1l0.9,0.4c0.4,0.2,0.4,0.7,0,0.9l-0.9,0.4c-2.2,1.1-4,2.9-5.1,5.1
			l-0.4,0.9c-0.2,0.4-0.7,0.4-0.9,0l-0.4-0.9c-1.1-2.2-2.9-4-5.1-5.1l-0.9-0.4c-0.4-0.2-0.4-0.7,0-0.9L4.7,44c2.2-1.1,4-2.9,5.1-5.1
			l0.4-0.9C10.4,37.6,10.9,37.6,11.1,38z"/>
		<path class="st0" d="M10,55.9l0.4,0.8c0.9,2,2.5,3.5,4.5,4.5l0.8,0.4c0.3,0.2,0.3,0.6,0,0.8l-0.8,0.4c-2,0.9-3.5,2.5-4.5,4.5
			L10,67.8c-0.2,0.3-0.6,0.3-0.8,0l-0.4-0.8c-0.9-2-2.5-3.5-4.5-4.5l-0.8-0.4c-0.3-0.2-0.3-0.6,0-0.8l0.8-0.4c2-0.9,3.5-2.5,4.5-4.5
			l0.4-0.8C9.4,55.5,9.8,55.5,10,55.9z"/>
		<path class="st0" d="M16.1,71.2l0.3,0.6c0.8,1.6,2,2.9,3.6,3.6l0.6,0.3c0.3,0.1,0.3,0.5,0,0.6L20,76.7c-1.6,0.8-2.9,2-3.6,3.6
			L16.1,81c-0.1,0.3-0.5,0.3-0.6,0l-0.3-0.6c-0.8-1.6-2-2.9-3.6-3.6l-0.6-0.3c-0.3-0.1-0.3-0.5,0-0.6l0.6-0.3c1.6-0.8,2.9-2,3.6-3.6
			l0.3-0.6C15.6,71,16,71,16.1,71.2z"/>
		<path class="st0" d="M25.8,81.4l0.2,0.5c0.6,1.2,1.5,2.2,2.7,2.7l0.5,0.2c0.2,0.1,0.2,0.4,0,0.5l-0.5,0.2
			c-1.2,0.6-2.2,1.5-2.7,2.7l-0.2,0.5c-0.1,0.2-0.4,0.2-0.5,0l-0.2-0.5c-0.6-1.2-1.5-2.2-2.7-2.7l-0.5-0.2c-0.2-0.1-0.2-0.4,0-0.5
			l0.5-0.2c1.2-0.6,2.2-1.5,2.7-2.7l0.2-0.5C25.4,81.2,25.7,81.2,25.8,81.4z"/>
	</g>
	<path class="st0" d="M70.8,41.6l-6.5,19.1H80C79.6,53.1,76.1,46.4,70.8,41.6z M52,34.4c-14.9,0-27.1,11.6-28,26.3H40
		c0.9-5.8,5.9-10.3,12-10.3c3.5,0,6.7,1.5,8.9,3.9l5.3-16C62,35.8,57.2,34.4,52,34.4z M64,64.1c-0.8,6-5.8,10.6-12,10.6
		S40.7,70,40,64.1H23.9C24.7,78.9,37,90.6,52,90.6s27.3-11.8,28.1-26.6H64z"/>
	<path class="st0" d="M58.8,62.5c0,0.5-0.1,1-0.2,1.5c-0.7,3-3.4,5.3-6.6,5.3s-5.9-2.3-6.6-5.3c-0.1-0.5-0.2-1-0.2-1.5
		c0-0.6,0.1-1.2,0.2-1.8c0.8-2.9,3.4-5,6.6-5s5.8,2.1,6.6,5C58.7,61.3,58.8,61.9,58.8,62.5z"/>
	<path class="st0" d="M96.8,48.3c-1,5.2-5.5,12.1-11.9,12.9c-0.9,0.1-2-0.6-2.3-1.4c-0.2-0.6-0.1-1.2,0.7-1.8
		c1.9-1.3,12.3-8.7,0.5-17.2c-5.7-4.1-10.6-6.6-10.6-6.6l-2.5,7.3c-1.4-1.3-2.9-2.4-4.6-3.4l6.9-20.8c0.5-1.4,2-2.1,3.4-1.7
		c1.1,0.4,1.6,1.1,1.8,2c0.2,0.6,0.4,1.7,0.6,2.3c0.8,2.7,3.1,7.5,9.2,11.7C97.2,37.9,97.8,42.9,96.8,48.3z"/>
</g>
</svg>
