<?xml version="1.0" standalone="no"?>
<!DOCTYPE svg PUBLIC "-//W3C//DTD SVG 20010904//EN"
 "http://www.w3.org/TR/2001/REC-SVG-20010904/DTD/svg10.dtd">
<svg version="1.0" xmlns="http://www.w3.org/2000/svg"
 width="512.000000pt" height="512.000000pt" viewBox="0 0 512.000000 512.000000"
 preserveAspectRatio="xMidYMid meet">

<g transform="translate(0.000000,512.000000) scale(0.100000,-0.100000)" stroke="none">
<path d="M2466 4345 c-21 -7 -55 -26 -75 -42 -40 -32 -2316 -3060 -2358 -3138
-23 -42 -27 -62 -27 -125 0 -90 29 -157 95 -213 84 -73 -122 -67 2454 -67
2571 0 2380 -5 2463 66 66 56 96 123 96 214 0 58 -5 85 -22 117 -36 68 -2317
3108 -2358 3141 -71 58 -182 78 -268 47z" fill="#4d3a8c"/>
</g>
</svg>
